RBDS09runT35_grf
version=1
nRows=37
nColumns=19
inDegrees=no
endheader
time	ground_force_r_vx	ground_force_r_vy	ground_force_r_vz	ground_force_r_px	ground_force_r_py	ground_force_r_pz	ground_force_r_mx	ground_force_r_my	ground_force_r_mz	ground_force_l_vx	ground_force_l_vy	ground_force_l_vz	ground_force_l_px	ground_force_l_py	ground_force_l_pz	ground_force_l_mx	ground_force_l_my	ground_force_l_mz
     22.49800000	   -106.02467003	    779.98029347	     12.87645871	      2.38060343	      0.00000000	      1.07711654	      0.00000000	      5.02720795	     -0.00000000	      0.00000000	      0.00000000	      0.00000000	      0.00000000	      0.00000000	      0.00000000	      0.00000000	      0.00000000	      0.00000000
     22.49900000	   -109.75864536	    815.92078155	     13.31018844	      2.37875489	      0.00000000	      1.07609996	      0.00000000	      5.01926787	     -0.00000000	      0.00000000	      0.00000000	      0.00000000	      0.00000000	      0.00000000	      0.00000000	      0.00000000	      0.00000000	      0.00000000
     22.50000000	   -113.49262069	    851.86126962	     13.74391817	      2.37690634	      0.00000000	      1.07508338	      0.00000000	      5.01132779	     -0.00000000	      0.00000000	      0.00000000	      0.00000000	      0.00000000	      0.00000000	      0.00000000	      0.00000000	      0.00000000	      0.00000000
     22.50100000	   -117.07673853	    885.53472610	     14.12395971	      2.37507999	      0.00000000	      1.07416370	      0.00000000	      5.02237075	     -0.00000000	      0.00000000	      0.00000000	      0.00000000	      0.00000000	      0.00000000	      0.00000000	      0.00000000	      0.00000000	      0.00000000
     22.50200000	   -120.66085637	    919.20818258	     14.50400126	      2.37325364	      0.00000000	      1.07324401	      0.00000000	      5.03341370	     -0.00000000	      0.00000000	      0.00000000	      0.00000000	      0.00000000	      0.00000000	      0.00000000	      0.00000000	      0.00000000	      0.00000000
     22.50300000	   -124.24497421	    952.88163906	     14.88404280	      2.37142729	      0.00000000	      1.07232432	      0.00000000	      5.04445665	     -0.00000000	      0.00000000	      0.00000000	      0.00000000	      0.00000000	      0.00000000	      0.00000000	      0.00000000	      0.00000000	      0.00000000
     22.50400000	   -127.69425967	    984.90573285	     15.21341737	      2.36961268	      0.00000000	      1.07147612	      0.00000000	      5.06390338	     -0.00000000	      0.00000000	      0.00000000	      0.00000000	      0.00000000	      0.00000000	      0.00000000	      0.00000000	      0.00000000	      0.00000000
     22.50500000	   -131.07612894	   1016.10514529	     15.51745844	      2.36780394	      0.00000000	      1.07066368	      0.00000000	      5.08755199	     -0.00000000	      0.00000000	      0.00000000	      0.00000000	      0.00000000	      0.00000000	      0.00000000	      0.00000000	      0.00000000	      0.00000000
     22.50600000	   -134.45799822	   1047.30455773	     15.82149951	      2.36599520	      0.00000000	      1.06985123	      0.00000000	      5.11120060	     -0.00000000	      0.00000000	      0.00000000	      0.00000000	      0.00000000	      0.00000000	      0.00000000	      0.00000000	      0.00000000	      0.00000000
     22.50700000	   -137.75405472	   1077.63191578	     16.09165477	      2.36419018	      0.00000000	      1.06907713	      0.00000000	      5.13613497	      0.00000000	      0.00000000	      0.00000000	      0.00000000	      0.00000000	      0.00000000	      0.00000000	      0.00000000	      0.00000000	      0.00000000
     22.50800000	   -140.87848568	   1106.21516502	     16.29403841	      2.36239261	      0.00000000	      1.06837974	      0.00000000	      5.16364087	      0.00000000	      0.00000000	      0.00000000	      0.00000000	      0.00000000	      0.00000000	      0.00000000	      0.00000000	      0.00000000	      0.00000000
     22.50900000	   -144.00291665	   1134.79841426	     16.49642206	      2.36059505	      0.00000000	      1.06768235	      0.00000000	      5.19114677	      0.00000000	      0.00000000	      0.00000000	      0.00000000	      0.00000000	      0.00000000	      0.00000000	      0.00000000	      0.00000000	      0.00000000
     22.51000000	   -147.12734762	   1163.38166350	     16.69880570	      2.35879748	      0.00000000	      1.06698496	      0.00000000	      5.21865266	      0.00000000	      0.00000000	      0.00000000	      0.00000000	      0.00000000	      0.00000000	      0.00000000	      0.00000000	      0.00000000	      0.00000000
     22.51100000	   -149.93704927	   1189.26944148	     16.77344876	      2.35700314	      0.00000000	      1.06640769	      0.00000000	      5.23972233	      0.00000000	      0.00000000	      0.00000000	      0.00000000	      0.00000000	      0.00000000	      0.00000000	      0.00000000	      0.00000000	      0.00000000
     22.51200000	   -152.74675091	   1215.15721945	     16.84809181	      2.35520880	      0.00000000	      1.06583043	      0.00000000	      5.26079199	      0.00000000	      0.00000000	      0.00000000	      0.00000000	      0.00000000	      0.00000000	      0.00000000	      0.00000000	      0.00000000	      0.00000000
     22.51300000	   -155.55645256	   1241.04499743	     16.92273487	      2.35341445	      0.00000000	      1.06525316	      0.00000000	      5.28186166	      0.00000000	      0.00000000	      0.00000000	      0.00000000	      0.00000000	      0.00000000	      0.00000000	      0.00000000	      0.00000000	      0.00000000
     22.51400000	   -158.11746338	   1265.12166526	     16.89656614	      2.35161619	      0.00000000	      1.06475742	      0.00000000	      5.29137557	      0.00000000	      0.00000000	      0.00000000	      0.00000000	      0.00000000	      0.00000000	      0.00000000	      0.00000000	      0.00000000	      0.00000000
     22.51500000	   -160.55412878	   1288.29277801	     16.81999151	      2.34981597	      0.00000000	      1.06430245	      0.00000000	      5.29511160	      0.00000000	      0.00000000	      0.00000000	      0.00000000	      0.00000000	      0.00000000	      0.00000000	      0.00000000	      0.00000000	      0.00000000
     22.51600000	   -162.99079419	   1311.46389077	     16.74341688	      2.34801574	      0.00000000	      1.06384748	      0.00000000	      5.29884764	      0.00000000	      0.00000000	      0.00000000	      0.00000000	      0.00000000	      0.00000000	      0.00000000	      0.00000000	      0.00000000	      0.00000000
     22.51700000	   -165.28382483	   1333.73946610	     16.61040204	      2.34621028	      0.00000000	      1.06343302	      0.00000000	      5.29328837	      0.00000000	      0.00000000	      0.00000000	      0.00000000	      0.00000000	      0.00000000	      0.00000000	      0.00000000	      0.00000000	      0.00000000
     22.51800000	   -167.28958595	   1354.22396659	     16.36450679	      2.34439433	      0.00000000	      1.06309960	      0.00000000	      5.26913850	      0.00000000	      0.00000000	      0.00000000	      0.00000000	      0.00000000	      0.00000000	      0.00000000	      0.00000000	      0.00000000	      0.00000000
     22.51900000	   -169.29534708	   1374.70846707	     16.11861153	      2.34257837	      0.00000000	      1.06276618	      0.00000000	      5.24498864	      0.00000000	      0.00000000	      0.00000000	      0.00000000	      0.00000000	      0.00000000	      0.00000000	      0.00000000	      0.00000000	      0.00000000
     22.52000000	   -171.30110820	   1395.19296756	     15.87271628	      2.34076242	      0.00000000	      1.06243276	      0.00000000	      5.22083877	      0.00000000	      0.00000000	      0.00000000	      0.00000000	      0.00000000	      0.00000000	      0.00000000	      0.00000000	      0.00000000	      0.00000000
     22.52100000	   -172.82028922	   1413.06368159	     15.44698990	      2.33892057	      0.00000000	      1.06221731	      0.00000000	      5.15947320	      0.00000000	      0.00000000	      0.00000000	      0.00000000	      0.00000000	      0.00000000	      0.00000000	      0.00000000	      0.00000000	      0.00000000
     22.52200000	   -174.33947024	   1430.93439563	     15.02126352	      2.33707872	      0.00000000	      1.06200186	      0.00000000	      5.09810762	      0.00000000	      0.00000000	      0.00000000	      0.00000000	      0.00000000	      0.00000000	      0.00000000	      0.00000000	      0.00000000	      0.00000000
     22.52300000	   -175.85865125	   1448.80510966	     14.59553715	      2.33523687	      0.00000000	      1.06178641	      0.00000000	      5.03674205	      0.00000000	      0.00000000	      0.00000000	      0.00000000	      0.00000000	      0.00000000	      0.00000000	      0.00000000	      0.00000000	      0.00000000
     22.52400000	   -177.01908393	   1465.00405796	     14.04897437	      2.33337103	      0.00000000	      1.06164544	      0.00000000	      4.94566082	      0.00000000	      0.00000000	      0.00000000	      0.00000000	      0.00000000	      0.00000000	      0.00000000	      0.00000000	      0.00000000	      0.00000000
     22.52500000	   -178.00014244	   1480.36712341	     13.44199340	      2.33149319	      0.00000000	      1.06154173	      0.00000000	      4.83972177	      0.00000000	      0.00000000	      0.00000000	      0.00000000	      0.00000000	      0.00000000	      0.00000000	      0.00000000	      0.00000000	      0.00000000
     22.52600000	   -178.98120094	   1495.73018885	     12.83501243	      2.32961535	      0.00000000	      1.06143801	      0.00000000	      4.73378271	      0.00000000	      0.00000000	      0.00000000	      0.00000000	      0.00000000	      0.00000000	      0.00000000	      0.00000000	      0.00000000	      0.00000000
     22.52700000	   -179.76774875	   1510.30057706	     12.17040059	      2.32772231	      0.00000000	      1.06136866	      0.00000000	      4.61138361	      0.00000000	      0.00000000	      0.00000000	      0.00000000	      0.00000000	      0.00000000	      0.00000000	      0.00000000	      0.00000000	      0.00000000
     22.52800000	   -180.16527517	   1523.28561084	     11.39052701	      2.32579885	      0.00000000	      1.06136805	      0.00000000	      4.45606443	      0.00000000	      0.00000000	      0.00000000	      0.00000000	      0.00000000	      0.00000000	      0.00000000	      0.00000000	      0.00000000	      0.00000000
     22.52900000	   -180.56280159	   1536.27064461	     10.61065343	      2.32387539	      0.00000000	      1.06136744	      0.00000000	      4.30074524	      0.00000000	      0.00000000	      0.00000000	      0.00000000	      0.00000000	      0.00000000	      0.00000000	      0.00000000	      0.00000000	      0.00000000
     22.53000000	   -180.96032801	   1549.25567838	      9.83077984	      2.32195193	      0.00000000	      1.06136683	      0.00000000	      4.14542605	      0.00000000	      0.00000000	      0.00000000	      0.00000000	      0.00000000	      0.00000000	      0.00000000	      0.00000000	      0.00000000	      0.00000000
     22.53100000	   -180.73697880	   1560.00613314	      8.89607165	      2.31997399	      0.00000000	      1.06145866	      0.00000000	      3.93885031	      0.00000000	      0.00000000	      0.00000000	      0.00000000	      0.00000000	      0.00000000	      0.00000000	      0.00000000	      0.00000000	      0.00000000
     22.53200000	   -180.51362959	   1570.75658790	      7.96136345	      2.31799605	      0.00000000	      1.06155049	      0.00000000	      3.73227457	      0.00000000	      0.00000000	      0.00000000	      0.00000000	      0.00000000	      0.00000000	      0.00000000	      0.00000000	      0.00000000	      0.00000000
     22.53300000	   -180.29028038	   1581.50704266	      7.02665526	      2.31601812	      0.00000000	      1.06164233	      0.00000000	      3.52569884	      0.00000000	      0.00000000	      0.00000000	      0.00000000	      0.00000000	      0.00000000	      0.00000000	      0.00000000	      0.00000000	      0.00000000
     22.53400000	   -179.63467169	   1590.86665391	      6.00668834	      2.31399866	      0.00000000	      1.06178759	      0.00000000	      3.28576540	      0.00000000	      0.00000000	      0.00000000	      0.00000000	      0.00000000	      0.00000000	      0.00000000	      0.00000000	      0.00000000	      0.00000000
